<svg xmlns="http://www.w3.org/2000/svg" width="714" height="541" viewBox="0 0 714 541" version="1.1"><path d="M 355.530 7.250 C 354.418 10.664, 334.884 131.218, 335.365 131.698 C 335.672 132.005, 337.403 129.872, 339.212 126.958 C 341.020 124.045, 358.508 95.974, 378.074 64.580 L 413.649 7.500 429.499 7.224 C 441.509 7.014, 445.546 7.257, 446.159 8.224 C 446.751 9.156, 446.973 9.029, 446.985 7.750 C 446.999 6.109, 444.171 6, 401.469 6 C 365.927 6, 355.848 6.274, 355.530 7.250 M 216 91.771 C 207.635 97.298, 19.570 214.912, 10.600 220.225 L 6 222.951 6 270 L 6 317.049 10.599 319.775 C 13.128 321.274, 51.491 345.154, 95.849 372.843 C 140.207 400.532, 176.838 423.396, 177.250 423.652 C 177.662 423.908, 178 423.898, 178 423.630 C 178 423.362, 174.621 421.036, 170.492 418.463 C 166.363 415.889, 162.746 413.399, 162.456 412.929 C 162.166 412.460, 172.218 395.676, 184.794 375.633 L 207.660 339.191 212.080 341.900 C 220.865 347.286, 224.481 349.300, 223.500 348.260 C 222.950 347.677, 194.661 329.853, 160.636 308.651 L 98.771 270.101 103.636 267.004 C 106.311 265.300, 134.938 247.421, 167.250 227.272 L 226 190.637 226 138.319 C 226 109.543, 225.662 86.035, 225.250 86.077 C 224.838 86.120, 220.675 88.682, 216 91.771 M 331.583 150.083 C 331.208 152.916, 331.101 155.435, 331.347 155.681 C 331.593 155.927, 332.112 153.820, 332.500 151 C 332.888 148.180, 332.994 145.661, 332.736 145.403 C 332.478 145.144, 331.959 147.251, 331.583 150.083 M 225.241 400.809 C 225.050 442.311, 224.742 452.972, 223.750 452.412 C 222.758 451.852, 222.754 451.981, 223.733 453.037 C 224.412 453.768, 225.203 454.130, 225.492 453.841 C 225.781 453.552, 225.897 429.732, 225.750 400.908 L 225.482 348.500 225.241 400.809 M 278.304 533.747 C 284.247 533.924, 293.697 533.923, 299.304 533.745 C 304.912 533.567, 300.050 533.422, 288.500 533.423 C 276.950 533.424, 272.362 533.570, 278.304 533.747" stroke="none" fill="#a91bd6" fill-rule="evenodd"/><path d="M 413.270 8.250 C 412.735 8.938, 395.517 36.500, 375.009 69.500 C 354.501 102.500, 337.168 130.175, 336.491 131 C 335.815 131.825, 334.521 137.225, 333.615 143 C 332.709 148.775, 317.687 238.817, 300.231 343.094 L 268.494 532.688 298.997 533.342 C 340.837 534.240, 357.780 534.165, 358.450 533.081 C 358.941 532.286, 397.304 301.727, 433.588 81.500 C 439.931 43, 445.367 10.488, 445.669 9.250 L 446.217 7 430.231 7 C 418.628 7, 413.978 7.343, 413.270 8.250 M 489.019 138.643 L 489.039 190.500 552.478 230 C 587.369 251.725, 615.917 269.725, 615.917 270 C 615.917 270.275, 587.369 288.275, 552.478 310 L 489.039 349.500 489.019 401.774 L 489 454.049 495.250 450.001 C 506.900 442.457, 694.451 325.324, 701.750 321.034 L 709 316.772 709 270.125 L 709 223.479 700.750 218.550 C 687.882 210.863, 504.198 96.197, 497.770 91.838 C 494.618 89.701, 491.356 87.690, 490.520 87.369 C 489.172 86.852, 489.002 92.652, 489.019 138.643 M 184.661 375.752 C 165.827 405.850, 162.057 412.472, 163.161 413.512 C 163.898 414.205, 173.275 420.299, 184 427.053 C 194.725 433.807, 206.650 441.424, 210.500 443.978 C 214.350 446.533, 219.188 449.645, 221.250 450.893 L 225 453.163 224.999 401.332 L 224.998 349.500 220.249 346.781 C 217.637 345.286, 213.700 342.980, 211.500 341.658 L 207.500 339.254 184.661 375.752" stroke="none" fill="#4a2be8" fill-rule="evenodd"/></svg>