<?xml version="1.0" encoding="UTF-8"?>
<svg version="1.1" xmlns="http://www.w3.org/2000/svg" width="714" height="541">
<path d="M0 0 C30.36 0 60.72 0 92 0 C88.55413854 24.12103019 88.55413854 24.12103019 86.7641449 34.76916504 C86.55941451 35.99940509 86.35468412 37.22964515 86.14374977 38.4971652 C85.58679315 41.84102041 85.02770077 45.18450446 84.46761692 48.52783632 C83.85799777 52.17028458 83.25127777 55.81321597 82.6441803 59.45608521 C81.58999948 65.77934107 80.53406268 72.10230161 79.4769268 78.42506409 C77.92001448 87.73715389 76.36611498 97.04974471 74.8128779 106.36244816 C72.25396089 121.70450413 69.6930041 137.04621884 67.13061523 152.38769531 C61.6090568 185.44634416 56.09123965 218.50561728 50.57526606 251.56519842 C49.68906021 256.87657374 48.80275746 262.18793288 47.91638245 267.49927998 C37.61330492 329.23812264 27.36604087 390.98611753 17.14976501 452.73937988 C17.01769738 453.53766634 16.88562974 454.33595279 16.74956006 455.15842974 C15.28526796 464.00950894 13.82121783 472.86062802 12.35817976 481.7119146 C11.62928269 486.12108802 10.89864736 490.52997134 10.16765022 494.938797 C9.38227908 499.67832155 8.60463458 504.41902895 7.83227348 509.16069031 C7.64841982 510.28230733 7.46456616 511.40392436 7.27514118 512.55952978 C6.931246 514.65765743 6.58981552 516.75619111 6.25129515 518.85519266 C6.1004273 519.77211689 5.94955944 520.68904111 5.79411983 521.63375092 C5.66410106 522.43339059 5.53408228 523.23303027 5.40012354 524.05690145 C5 526 5 526 4 528 C-26.03 528 -56.06 528 -87 528 C-86.35878014 520.94658157 -85.6397758 514.11814446 -84.46022034 507.16677856 C-84.22924083 505.77555379 -84.22924083 505.77555379 -83.99359506 504.35622346 C-83.48077395 501.27344881 -82.96219124 498.19167268 -82.44360352 495.10986328 C-82.07097527 492.87712627 -81.69870923 490.64432879 -81.3267746 488.41147614 C-80.31194572 482.32529113 -79.29212227 476.23995224 -78.27147985 470.15473986 C-77.29584412 464.33283193 -76.32409014 458.51027719 -75.352328 452.68772165 C-73.39089267 440.9359225 -71.42595752 429.1847113 -69.45898438 417.43383789 C-66.5556591 400.08876052 -63.65805154 382.74273057 -60.76171875 365.39648438 C-60.51984239 363.94791921 -60.27796507 362.4993542 -60.0360868 361.05078936 C-59.07032953 355.26702809 -58.10457674 349.48326608 -57.13888633 343.69949365 C-55.69339374 335.04217487 -54.24745836 326.38493018 -52.80119264 317.72774053 C-45.25464008 272.55476623 -37.7449535 227.37578311 -30.2753334 182.19002151 C-28.13970777 169.27108003 -26.00273294 156.35236153 -23.86577868 143.43363976 C-23.51116785 141.28981627 -23.15659127 139.14598711 -22.80201912 137.00215721 C-19.35640093 116.17003942 -15.89852852 95.33998218 -12.4296875 74.51171875 C-12.22611759 73.28937845 -12.02254768 72.06703815 -11.81280899 70.80765724 C-7.88116191 47.20411143 -3.9392762 23.60227351 0 0 Z " fill="#5E2BE4" transform="translate(355,6)"/>
<path d="M0 0 C0.39472777 13.49924754 0.69635333 26.99711323 0.88080692 40.50096607 C0.96936353 46.77249932 1.08933913 53.04007265 1.2824707 59.30932617 C1.4678658 65.36568892 1.56895756 71.4182576 1.61291313 77.47723961 C1.64421123 79.78256683 1.70534339 82.08769682 1.79741096 84.39139748 C2.47149485 101.96504696 2.47149485 101.96504696 -1.65196419 107.02858353 C-5.66430427 110.52037725 -10.10934305 112.88581467 -14.9431057 115.0469408 C-17.82334472 116.38149566 -20.42239397 118.07996172 -23.06640625 119.828125 C-24.89754606 120.97018056 -26.72958292 122.11079901 -28.5625 123.25 C-30.62895032 124.5376897 -32.69535527 125.8254522 -34.76171875 127.11328125 C-35.79603027 127.7573291 -36.8303418 128.40137695 -37.89599609 129.06494141 C-40.91887908 130.94942863 -43.93858 132.83889268 -46.95703125 134.73046875 C-57.38133518 141.26157564 -67.82925867 147.75136295 -78.3125 154.1875 C-90.35358571 161.58205523 -102.37232464 169.01612824 -114.20703125 176.73828125 C-114.8609082 177.16375244 -115.51478516 177.58922363 -116.18847656 178.02758789 C-117.40028155 178.81803963 -118.60946305 179.61253442 -119.81542969 180.41186523 C-123.77925062 183 -123.77925062 183 -126 183 C-123.5355861 185.72043684 -120.81731584 187.47134 -117.6875 189.37109375 C-116.62192871 190.02150635 -115.55635742 190.67191895 -114.45849609 191.34204102 C-113.89475281 191.68357208 -113.33100952 192.02510315 -112.75018311 192.37698364 C-109.778686 194.17755027 -106.81575288 195.99212701 -103.8515625 197.8046875 C-103.25928864 198.16633499 -102.66701477 198.52798248 -102.05679321 198.90058899 C-97.13376638 201.90935214 -92.24563413 204.96984749 -87.375 208.0625 C-80.37036281 212.50535054 -73.34807943 216.91879024 -66.3125 221.3125 C-65.30300293 221.94293213 -64.29350586 222.57336426 -63.25341797 223.22290039 C-61.19587228 224.5076015 -59.13825468 225.79218745 -57.08056641 227.07666016 C-51.06574923 230.83198824 -45.05329216 234.59109414 -39.04077148 238.35009766 C-33.81795475 241.61505566 -28.59366066 244.87761651 -23.3671875 248.13671875 C-21.73716797 249.15378906 -21.73716797 249.15378906 -20.07421875 250.19140625 C-17.99655843 251.48772423 -15.91845848 252.78333796 -13.83984375 254.078125 C-12.43025391 254.95791016 -12.43025391 254.95791016 -10.9921875 255.85546875 C-10.17089355 256.36746826 -9.34959961 256.87946777 -8.50341797 257.40698242 C-7.67729004 257.93267822 -6.85116211 258.45837402 -6 259 C-4.97241577 259.48469254 -3.94483154 259.96938507 -2.8861084 260.46876526 C0.27538886 263.24152726 0.43394094 263.5429016 0.7215271 267.46722412 C0.73892472 269.34237482 0.72295496 271.21800803 0.68115234 273.09277344 C0.68246658 274.62983696 0.68246658 274.62983696 0.68380737 276.19795227 C0.67962631 279.58586793 0.63294667 282.97180514 0.5859375 286.359375 C0.57474729 288.70777301 0.56620628 291.05618503 0.56021118 293.40460205 C0.53729955 299.58635107 0.47835448 305.76725455 0.4119873 311.94866943 C0.35061611 318.25602784 0.3232071 324.56352285 0.29296875 330.87109375 C0.22861491 343.24776739 0.12620585 355.62381339 0 368 C-4.37328392 366.32613606 -8.18960587 364.13889926 -12.125 361.625 C-13.17107422 360.96407349 -13.17107422 360.96407349 -14.23828125 360.28979492 C-16.49447937 358.86344843 -18.74720519 357.43171419 -21 356 C-23.99887628 354.10238728 -26.99955666 352.20763366 -30 350.3125 C-30.7849585 349.81613037 -31.56991699 349.31976074 -32.37866211 348.80834961 C-41.86940521 342.81016975 -51.39543561 336.86851417 -60.91943359 330.92333984 C-65.94746487 327.78410777 -70.97365341 324.64192849 -76 321.5 C-77.99999085 320.24998536 -79.99999086 318.99998538 -82 317.75 C-86 315.25 -90 312.75 -94 310.25 C-94.99040283 309.6310083 -95.98080566 309.0120166 -97.0012207 308.37426758 C-98.99718828 307.12676753 -100.99311939 305.87920912 -102.98901367 304.6315918 C-108.05040916 301.46785818 -113.11247394 298.30520439 -118.17578125 295.14453125 C-127.29664348 289.4497797 -136.41349687 283.74945457 -145.5 278 C-156.63769245 270.95363185 -167.81407398 263.96949338 -179 257 C-179.92135742 256.42572266 -180.84271484 255.85144531 -181.79199219 255.25976562 C-184.44334269 253.6085448 -187.09634076 251.96000743 -189.75 250.3125 C-190.4910498 249.85109619 -191.23209961 249.38969238 -191.99560547 248.91430664 C-193.13473389 248.20842407 -193.13473389 248.20842407 -194.296875 247.48828125 C-195.07526733 246.98355789 -195.85365967 246.47883453 -196.65563965 245.95881653 C-199.3669382 244.37078896 -201.98154372 243.08267525 -204.83609009 241.79776001 C-218.21000269 235.39793044 -218.21000269 235.39793044 -221.19143677 229.73830986 C-223.08327799 223.38592782 -222.85613243 216.85128988 -222.7265625 210.28515625 C-222.74515443 208.18105047 -222.76937503 206.07698769 -222.79891968 203.9730072 C-222.83728483 199.57678639 -222.80299447 195.18870907 -222.71728516 190.79321289 C-222.61445973 185.18637647 -222.70271919 179.60094624 -222.84034538 173.99555588 C-223.52819772 141.34327049 -223.52819772 141.34327049 -217.85601807 132.75305176 C-212.83039976 128.0432905 -207.32822522 125.77387149 -200.77558899 123.91749573 C-196.24846249 122.42101363 -192.52997677 119.80681131 -188.625 117.125 C-187.33299683 116.3050354 -187.33299683 116.3050354 -186.01489258 115.46850586 C-185.33579834 115.03417236 -184.6567041 114.59983887 -183.95703125 114.15234375 C-178.43021588 110.62979496 -172.8723498 107.15759773 -167.3125 103.6875 C-166.3033252 103.05730957 -165.29415039 102.42711914 -164.25439453 101.77783203 C-162.19654179 100.49285721 -160.1385986 99.20802724 -158.08056641 97.92333984 C-153.05253513 94.78410777 -148.02634659 91.64192849 -143 88.5 C-141.00000915 87.24998536 -139.00000914 85.99998538 -137 84.75 C-136.01 84.13125 -135.02 83.5125 -134 82.875 C-77 47.25 -77 47.25 -73.9987793 45.37426758 C-72.00281172 44.12676753 -70.00688061 42.87920912 -68.01098633 41.6315918 C-62.94959084 38.46785818 -57.88752606 35.30520439 -52.82421875 32.14453125 C-43.49732324 26.32131974 -34.17380178 20.49300149 -24.875 14.625 C-24.10961914 14.14232666 -23.34423828 13.65965332 -22.55566406 13.16235352 C-18.95022695 10.88368905 -15.35706081 8.58873824 -11.78515625 6.2578125 C-11.13240723 5.83290527 -10.4796582 5.40799805 -9.80712891 4.97021484 C-8.59703571 4.18044653 -7.38949382 3.38674932 -6.18505859 2.58837891 C-2.22057951 0 -2.22057951 0 0 0 Z " fill="#9C1FD8" transform="translate(226,86)"/>
<path d="M0 0 C3.25279158 1.2691439 6.11099354 2.57541996 9.01953125 4.51171875 C9.78168945 5.01429199 10.54384766 5.51686523 11.32910156 6.03466797 C12.14862305 6.58010254 12.96814453 7.12553711 13.8125 7.6875 C21.40076879 12.6786018 29.04059345 17.57306911 36.75 22.375 C37.75393799 23.00043701 38.75787598 23.62587402 39.79223633 24.27026367 C41.83971322 25.54490482 43.88748429 26.81907356 45.93554688 28.09277344 C50.96176368 31.2209447 55.98054402 34.36099643 61 37.5 C62.99996341 38.75005854 64.99996344 40.0000585 67 41.25 C151 93.75 151 93.75 153.99951172 95.62475586 C156.00106619 96.87568669 158.00269389 98.12650035 160.00439453 99.37719727 C164.98121596 102.48700269 169.95677968 105.59878331 174.9296875 108.71484375 C183.35486345 113.99138421 191.78359176 119.26100097 200.25390625 124.46484375 C201.15683411 125.01962654 201.15683411 125.01962654 202.07800293 125.58561707 C205.01319449 127.38829158 207.949781 129.18864845 210.88818359 130.98608398 C212.45753662 131.94816772 212.45753662 131.94816772 214.05859375 132.9296875 C214.98986084 133.49929199 215.92112793 134.06889648 216.88061523 134.65576172 C219 136 219 136 220 137 C220.09526806 139.95246354 220.12552452 142.88148421 220.11352539 145.83422852 C220.11367142 146.76096375 220.11381744 147.68769897 220.1139679 148.64251709 C220.11326838 151.72133687 220.10547421 154.80009697 220.09765625 157.87890625 C220.09579221 160.00740018 220.09436824 162.13589453 220.09336853 164.26438904 C220.08954228 169.8786232 220.07971108 175.49283168 220.06866455 181.10705566 C220.05845273 186.83113253 220.0538714 192.55521353 220.04882812 198.27929688 C220.03808891 209.51954256 220.0210112 220.75976915 220 232 C218.90155762 232.61515472 217.80311523 233.23030945 216.67138672 233.86410522 C215.21579345 234.68067721 213.76022854 235.49729975 212.3046875 236.31396484 C211.58240967 236.71828232 210.86013184 237.12259979 210.1159668 237.53916931 C204.97920977 240.42310089 199.94861357 243.42778623 195 246.625 C193.389725 247.65297387 191.77902675 248.68028495 190.16796875 249.70703125 C189.33313965 250.24021973 188.49831055 250.7734082 187.63818359 251.32275391 C182.8805698 254.34744452 178.09548664 257.32815749 173.3125 260.3125 C171.26692512 261.58984061 169.22135222 262.86718438 167.17578125 264.14453125 C166.15436035 264.78213379 165.13293945 265.41973633 164.08056641 266.07666016 C159.05253513 269.21589223 154.02634659 272.35807151 149 275.5 C147.00000915 276.75001464 145.00000914 278.00001462 143 279.25 C142.01 279.86875 141.02 280.4875 140 281.125 C83 316.75 83 316.75 79.9987793 318.62573242 C78.00281172 319.87323247 76.00688061 321.12079088 74.01098633 322.3684082 C68.94959084 325.53214182 63.88752606 328.69479561 58.82421875 331.85546875 C49.56100812 337.63882562 40.29992515 343.42551522 31.0625 349.25 C30.30267822 349.72896729 29.54285645 350.20793457 28.76000977 350.70141602 C24.89522689 353.14498574 21.04867605 355.6133091 17.22265625 358.1171875 C16.44978271 358.62217773 15.67690918 359.12716797 14.88061523 359.64746094 C13.42296978 360.60229049 11.9678631 361.56101212 10.51586914 362.52441406 C9.86352295 362.95206055 9.21117676 363.37970703 8.5390625 363.8203125 C7.97396973 364.19430176 7.40887695 364.56829102 6.82666016 364.95361328 C4.63122989 366.21124682 2.35336544 367.07811795 0 368 C-0.23179839 354.43096365 -0.40943251 340.8623989 -0.51812172 327.29178524 C-0.57029082 320.99011703 -0.64103614 314.68980413 -0.75439453 308.38891602 C-0.86312935 302.30689264 -0.92285829 296.2261718 -0.94877243 290.14325142 C-0.96723647 287.82385307 -1.00329503 285.50452533 -1.05730057 283.1856823 C-1.46390875 265.00228123 -1.46390875 265.00228123 2.13183594 260.08415222 C4.72210257 258.23543794 7.03164837 257.112753 10 256 C11.54249664 255.08848663 13.07154765 254.15332423 14.578125 253.18359375 C16.13376346 252.26542239 17.69111766 251.35015301 19.25 250.4375 C26.49691597 246.14138726 33.65459335 241.72942757 40.75 237.1875 C48.43247973 232.27022355 56.136495 227.39121151 63.875 222.5625 C64.87241211 221.94012451 65.86982422 221.31774902 66.89746094 220.67651367 C68.92075337 219.41448094 70.94419116 218.15268121 72.96777344 216.89111328 C76.98352987 214.38660045 80.99684547 211.8781948 85.00976562 209.36914062 C86.98979605 208.13145995 88.97025905 206.89447102 90.95117188 205.65820312 C95.66247785 202.71713077 100.36962799 199.76995018 105.06439209 196.80252075 C106.74907936 195.738047 108.43507739 194.67564862 110.12109375 193.61328125 C112.25360026 192.26926454 114.38389576 190.92173184 116.51171875 189.5703125 C117.46433594 188.97089844 118.41695312 188.37148438 119.3984375 187.75390625 C120.24067871 187.22095947 121.08291992 186.6880127 121.95068359 186.13891602 C124 185 124 185 126 185 C126 184.34 126 183.68 126 183 C124.93289795 182.60627197 124.93289795 182.60627197 123.84423828 182.20458984 C120.85758655 180.93968515 118.24906934 179.43387722 115.4921875 177.7265625 C114.43322266 177.07300781 113.37425781 176.41945313 112.28320312 175.74609375 C111.14705409 175.03919319 110.01098834 174.33215877 108.875 173.625 C107.69481785 172.8942786 106.51447763 172.16381245 105.33398438 171.43359375 C97.94975767 166.86009315 90.59711214 162.23733996 83.26513672 157.58056641 C76.54894341 153.32350235 69.77738301 149.15878203 63 145 C54.68125795 139.89430752 46.38750487 134.75495295 38.14746094 129.52319336 C33.69167214 126.69533344 29.2234301 123.88895773 24.7421875 121.1015625 C23.66533691 120.43133057 22.58848633 119.76109863 21.47900391 119.07055664 C19.38088872 117.76577837 17.28166544 116.46277967 15.18115234 115.16186523 C14.21902832 114.56317627 13.2569043 113.9644873 12.265625 113.34765625 C11.41774414 112.82179932 10.56986328 112.29594238 9.69628906 111.75415039 C8.36162598 110.88584595 8.36162598 110.88584595 7 110 C6.41701488 109.70094128 5.83402975 109.40188255 5.23337841 109.09376144 C2.33034247 107.42377847 0.3484037 106.16937644 -0.63515663 102.86817074 C-0.86357924 100.15346593 -0.8657927 97.51728492 -0.79467773 94.79370117 C-0.79569992 93.76884613 -0.79672211 92.74399109 -0.79777527 91.68807983 C-0.79290377 88.30531554 -0.73847927 84.92526059 -0.68359375 81.54296875 C-0.6705361 79.19600397 -0.66057272 76.8490201 -0.65357971 74.50202942 C-0.62686796 68.32837126 -0.55811597 62.15586817 -0.48065186 55.98266602 C-0.4090115 49.68196234 -0.37706634 43.38107179 -0.34179688 37.08007812 C-0.26675027 24.71954492 -0.14729637 12.35986855 0 0 Z " fill="#2436EE" transform="translate(489,86)"/>
</svg>
